IKResults
version=1
nRows=15
nColumns=34
inDegrees=yes

Units are S.I. units (second, meters, Newtons, ...)
If the header above contains a line with 'inDegrees', this indicates whether rotational values are in degrees (yes) or radians (no).

endheader
time	pelvis_tilt	pelvis_list	pelvis_rotation	pelvis_tx	pelvis_ty	pelvis_tz	hip_flexion_r	hip_adduction_r	hip_rotation_r	knee_angle_r	ankle_angle_r	subtalar_angle_r	mtp_angle_r	hip_flexion_l	hip_adduction_l	hip_rotation_l	knee_angle_l	socket_flexion	socket_adduction	socket_rotation	socket_tx	socket_ty	socket_tz	pros_ankle_rx	pros_ankle_ry	pros_ankle_rz	pros_ankle_tx	pros_ankle_ty	pros_ankle_tz	foot_flex	lumbar_extension	lumbar_bending	lumbar_rotation
      0.00000000	     -2.13846536	     -9.16577159	     -4.89590932	     -0.78447262	      1.04318541	      0.36679917	    -17.29621540	      9.76130235	     -4.04773654	     -2.68093340	      3.68034358	     22.73912025	     27.76611285	     20.73427323	     -8.92758843	      1.10027582	      2.02661900	      1.49597199	     -0.40787140	     -1.06551841	      0.00000000	      0.00025405	      0.00000000	      0.00000000	      0.00000000	      0.00000000	      0.00000000	      0.00000000	      0.00000000	      0.08830799	    -16.11701344	      4.17062518	     13.29947538
      0.00418120	     -2.16961846	     -9.19228072	     -4.96697367	     -0.77960426	      1.04224804	      0.36680349	    -17.48487048	      9.71885677	     -3.98894693	     -2.79989476	      3.69456089	     22.77339429	     27.78110335	     20.78216522	     -8.93091007	      1.11850781	      1.93553619	      1.60727866	     -0.39747745	     -1.11416404	      0.00000000	     -0.00005675	      0.00000000	      0.00000000	      0.00000000	      0.00000000	      0.00000000	      0.00000000	      0.00000000	     -0.26654235	    -16.09251680	      4.10512918	     13.29375717
      0.00836240	     -2.19934724	     -9.20478852	     -5.06747540	     -0.77456134	      1.04130574	      0.36685882	    -17.67937107	      9.65254755	     -3.90853288	     -2.92543448	      3.72427853	     22.83434097	     27.81011522	     20.82255039	     -8.93373188	      1.16577273	      1.81292774	      1.70434843	     -0.39348053	     -1.19251842	      0.00000000	     -0.00041754	      0.00000000	      0.00000000	      0.00000000	      0.00000000	      0.00000000	      0.00000000	      0.00000000	     -0.66852416	    -16.07045381	      4.03492505	     13.30431399
      0.01254400	     -2.23207915	     -9.21898495	     -5.17066002	     -0.76934818	      1.04030428	      0.36686764	    -17.87561323	      9.57788726	     -3.82293970	     -3.06792854	      3.76535990	     22.91490899	     27.85426336	     20.87040551	     -8.93423120	      1.22847536	      1.66352137	      1.80573830	     -0.39079667	     -1.28851525	      0.00000000	     -0.00086982	      0.00000000	      0.00000000	      0.00000000	      0.00000000	      0.00000000	      0.00000000	      0.00000000	     -1.06959631	    -16.05338381	      3.94942729	     13.33014542
      0.01672500	     -2.26135290	     -9.23339826	     -5.27147230	     -0.76401664	      1.03929970	      0.36686124	    -18.06109265	      9.50180362	     -3.73989743	     -3.23846587	      3.80900732	     23.01025084	     27.91530438	     20.92090600	     -8.93305220	      1.30046713	      1.48622972	      1.91880073	     -0.39412847	     -1.39315895	      0.00000000	     -0.00135862	      0.00000000	      0.00000000	      0.00000000	      0.00000000	      0.00000000	      0.00000000	      0.00000000	     -1.47048585	    -16.03992835	      3.85930085	     13.36993085
      0.02090600	     -2.29586029	     -9.24513599	     -5.34922093	     -0.75856201	      1.03826336	      0.36682171	    -18.24854579	      9.42935477	     -3.67235497	     -3.40775160	      3.83986299	     23.09761662	     27.97581589	     20.98219804	     -8.91835674	      1.35817599	      1.29937684	      2.06451499	     -0.39939582	     -1.48183158	      0.00000000	     -0.00189391	      0.00000000	      0.00000000	      0.00000000	      0.00000000	      0.00000000	      0.00000000	      0.00000000	     -1.84845405	    -16.02008545	      3.77451817	     13.40661692
      0.02508700	     -2.33269732	     -9.23751470	     -5.47255819	     -0.75301635	      1.03724525	      0.36688202	    -18.40726686	      9.31808796	     -3.61333552	     -3.62945782	      3.90494148	     23.24820901	     28.10087418	     21.03875039	     -8.90989027	      1.45190687	      1.04786250	      2.16164286	     -0.41315597	     -1.62286547	      0.00000000	     -0.00251326	      0.00000000	      0.00000000	      0.00000000	      0.00000000	      0.00000000	      0.00000000	      0.00000000	     -2.27407507	    -16.01461761	      3.64316375	     13.47806236
      0.02926800	     -2.36220545	     -9.24529528	     -5.52300982	     -0.74740445	      1.03621606	      0.36675056	    -18.57738380	      9.24344569	     -3.56035783	     -3.84214016	      3.91355097	     23.33224018	     28.17481501	     21.09887661	     -8.87626868	      1.50751905	      0.82672498	      2.35703255	     -0.42762594	     -1.67079960	      0.00000000	     -0.00315958	      0.00000000	      0.00000000	      0.00000000	      0.00000000	      0.00000000	      0.00000000	      0.00000000	     -2.60749237	    -15.98446583	      3.56166303	     13.50970440
      0.03344900	     -2.52402075	     -9.21041643	     -5.54649967	     -0.74165682	      1.03473746	      0.36660656	    -18.31301320	      9.05877688	     -4.41074822	     -4.58493774	      4.09210793	     24.82987899	     30.58196582	     21.58940309	     -8.79088266	      1.44900209	     -0.24592541	      1.97989283	     -0.43733460	     -1.53182979	      0.00000000	     -0.00416743	      0.00000000	      0.00000000	      0.00000000	      0.00000000	      0.00000000	      0.00000000	      0.00000000	     -2.98633368	    -15.79228064	      3.41223545	     13.56240844
      0.03763100	     -2.55425591	     -9.20520356	     -5.61369301	     -0.73590034	      1.03375242	      0.36654122	    -18.49198020	      8.97061449	     -4.31323137	     -4.78071405	      4.05876512	     24.82635377	     30.63737797	     21.61335557	     -8.76327642	      1.50950207	     -0.46987654	      2.19025462	     -0.46175723	     -1.56383752	      0.00000000	     -0.00495087	      0.00000000	      0.00000000	      0.00000000	      0.00000000	      0.00000000	      0.00000000	      0.00000000	     -3.33723983	    -15.77321924	      3.31728861	     13.56240546
      0.04181200	     -2.57521866	     -9.18951032	     -5.66336585	     -0.73012848	      1.03278366	      0.36641437	    -18.66261130	      8.86979926	     -4.22188499	     -5.00561669	      4.02194422	     24.83234660	     30.69278461	     21.63924069	     -8.71356005	      1.54923580	     -0.72419567	      2.40914668	     -0.49025526	     -1.61646331	      0.00000000	     -0.00579600	      0.00000000	      0.00000000	      0.00000000	      0.00000000	      0.00000000	      0.00000000	      0.00000000	     -3.62846284	    -15.74679867	      3.21044200	     13.56414574
      0.04599300	     -2.59387161	     -9.16108359	     -5.71891862	     -0.72434226	      1.03188430	      0.36630490	    -18.81117197	      8.75941376	     -4.14093979	     -5.25853614	      3.97724219	     24.83828862	     30.75409169	     21.65848281	     -8.65183105	      1.58473590	     -1.00822973	      2.63224653	     -0.52311749	     -1.67316378	      0.00000000	     -0.00666098	      0.00000000	      0.00000000	      0.00000000	      0.00000000	      0.00000000	      0.00000000	      0.00000000	     -3.89733687	    -15.72472837	      3.08415954	     13.56550862
      0.05017400	     -2.67394314	     -9.07732197	     -5.78914488	     -0.71852426	      1.03075445	      0.36637065	    -18.69654546	      8.53716715	     -4.58963047	     -5.84618454	      3.85378948	     25.45410138	     33.60355983	     22.21120159	     -8.55162643	      1.03760037	     -2.72166576	      1.88729153	     -0.54731896	     -1.11881971	      0.00000000	     -0.00775686	      0.00000000	      0.00000000	      0.00000000	      0.00000000	      0.00000000	      0.00000000	      0.00000000	     -4.15227247	    -15.67961176	      2.79647199	     13.60382991
      0.05435500	     -2.70121031	     -9.06747624	     -5.79091153	     -0.71264914	      1.02987738	      0.36620745	    -18.85438560	      8.47158733	     -4.50859382	     -6.06077929	      3.80247545	     25.44747580	     33.62095199	     22.21872451	     -8.49797189	      1.06881520	     -2.96443756	      2.18153736	     -0.58398441	     -1.13009360	      0.00000000	     -0.00872543	      0.00000000	      0.00000000	      0.00000000	      0.00000000	      0.00000000	      0.00000000	      0.00000000	     -4.30684379	    -15.63988462	      2.73623144	     13.59521991
      0.05853700	     -2.69044564	     -8.92909705	     -5.89907139	     -0.70699251	      1.02923935	      0.36616913	    -18.86378217	      8.21032613	     -4.47367350	     -6.58267211	      3.66226168	     25.33447964	     33.77048761	     22.21325241	     -8.34727757	      1.09881182	     -3.41318422	      2.28442935	     -0.62499446	     -1.30060661	      0.00000000	     -0.00948134	      0.00000000	      0.00000000	      0.00000000	      0.00000000	      0.00000000	      0.00000000	      0.00000000	     -4.53715461	    -15.70550802	      2.38840226	     13.56767006
